<svg xmlns="http://www.w3.org/2000/svg" xmlns:xlink="http://www.w3.org/1999/xlink" width="151.899" height="48.565" version="1.1" xml:space="preserve" style="shape-rendering:geometricPrecision;text-rendering:geometricPrecision;image-rendering:optimizeQuality;fill-rule:evenodd;clip-rule:evenodd" viewBox="0 0 315 101"><defs><style type="text/css">.fil2{fill:#031931}.fil1{fill:#c11e2f}.fil0{fill:#031931;fill-rule:nonzero}</style></defs><g id="Layer_x0020_1"><metadata id="CorelCorpID_0Corel-Layer"/><g id="_1362048779440"><path d="M20 96c-1,1 -1,3 -1,4 -1,0 -3,1 -4,1 -1,0 -2,0 -2,0 -2,0 -4,0 -5,-1 -2,0 -3,-1 -4,-2 -2,-1 -3,-2 -3,-4 -1,-1 -1,-3 -1,-5 0,-2 0,-3 1,-5 1,-2 2,-3 3,-4 1,-1 3,-2 4,-2 2,-1 4,-1 6,-1 2,0 4,0 6,0 0,1 0,2 0,2l0 2c-1,0 -2,0 -3,0 -1,-1 -2,-1 -3,-1 -1,0 -2,1 -3,1 -1,0 -2,1 -3,2 -1,1 -2,1 -2,3 -1,1 -1,2 -1,3 0,2 0,3 1,4 1,1 2,2 3,3 1,1 3,1 4,1 2,0 4,0 7,-1zm17 -19c1,0 3,0 4,0 2,1 3,2 5,3 1,1 2,2 2,3 1,2 1,3 1,5 0,2 0,4 -1,5 0,2 -1,3 -2,4 -2,2 -3,2 -5,3 -2,1 -3,1 -5,1 -2,0 -4,0 -6,-1 -1,0 -3,-1 -4,-2 -1,-1 -2,-3 -3,-4 0,-2 0,-3 0,-5 0,-2 0,-3 1,-5 0,-2 1,-3 3,-4 1,-1 2,-2 4,-2 2,-1 4,-1 6,-1zm-1 3c-1,0 -3,1 -4,2 -2,0 -2,1 -3,3 -1,1 -1,3 -1,4 0,2 0,3 1,4 0,2 1,3 3,3 1,1 2,1 4,1 1,0 2,0 3,0 1,-1 2,-1 3,-2 0,-1 1,-2 1,-3 1,-1 1,-2 1,-4 0,-1 0,-2 -1,-3 0,-1 0,-2 -1,-2 -1,-1 -2,-2 -3,-2 -1,0 -2,-1 -3,-1zm16 20c0,-2 0,-3 -1,-4 3,1 5,1 7,1 0,0 1,0 2,0 0,0 1,-1 1,-1 0,0 0,-1 0,-1 0,-1 0,-1 0,-1 0,-1 0,-1 -1,-2 0,0 -2,-1 -3,-3 -1,-1 -2,-1 -2,-1 -1,-1 -1,-2 -2,-2 0,-1 0,-1 0,-2 0,0 -1,-1 -1,-1 0,-1 1,-2 1,-3 1,-1 2,-2 3,-2 1,-1 3,-1 5,-1 1,0 3,0 5,0 0,1 0,3 0,4 -1,0 -3,-1 -5,-1 -1,0 -2,1 -2,1 -1,1 -1,1 -1,2 0,0 0,0 0,0 0,1 0,1 0,1 0,0 0,0 0,1 1,0 1,0 2,1 0,0 0,1 1,1l2 2c0,0 1,1 1,1 1,0 1,1 1,1 1,1 1,1 1,1 0,1 0,1 1,1 0,1 0,1 0,2 0,1 -1,1 -1,2 0,1 -1,2 -2,2 -1,1 -2,1 -3,2 -1,0 -2,0 -3,0 -1,0 -1,0 -2,0 -1,0 -3,-1 -4,-1zm18 0l0 -3 2 -14 0 -6c2,0 3,0 3,0 1,0 2,0 4,0 0,1 0,2 0,2 0,0 0,1 1,2 0,1 0,2 1,3 0,2 1,4 1,6l2 4 2 -6 3 -8c0,0 1,-1 1,-1 0,0 0,-1 0,-2 2,0 3,0 4,0 1,0 2,0 3,0 0,3 0,7 0,11 0,4 0,7 0,9 0,1 0,2 0,3 -1,0 -2,0 -3,0 0,0 -1,0 -2,0 0,-1 0,-2 0,-2l1 -11c0,-1 0,-2 0,-4l0 -1 -7 16 0 2c-2,0 -2,0 -3,0 0,0 -1,0 -2,0l-3 -10c0,0 0,-1 -1,-2l-1 -4c0,0 0,-1 0,-1 0,0 0,0 0,-1l-1 2c0,1 0,2 0,4l-1 10c0,1 0,1 0,2l-2 0c0,0 -1,0 -2,0zm45 -23c1,0 3,0 5,0 1,1 2,2 4,3 1,1 2,2 2,3 1,2 1,3 1,5 0,2 0,4 -1,5 0,2 -1,3 -2,4 -1,2 -3,2 -5,3 -1,1 -3,1 -5,1 -2,0 -4,0 -5,-1 -2,0 -4,-1 -5,-2 -1,-1 -2,-3 -2,-4 -1,-2 -1,-3 -1,-5 0,-2 0,-3 1,-5 0,-2 1,-3 3,-4 1,-1 2,-2 4,-2 2,-1 4,-1 6,-1zm-1 3c-1,0 -3,1 -4,2 -1,0 -2,1 -3,3 -1,1 -1,3 -1,4 0,2 0,3 1,4 1,2 2,3 3,3 1,1 3,1 4,1 1,0 2,0 3,0 1,-1 2,-1 3,-2 1,-1 1,-2 2,-3 0,-1 0,-2 0,-4 0,-1 0,-2 0,-3 -1,-1 -1,-2 -2,-2 -1,-1 -1,-2 -2,-2 -1,0 -3,-1 -4,-1zm16 20c0,-2 0,-3 0,-4 2,1 4,1 6,1 0,0 1,0 2,0 0,0 1,-1 1,-1 0,0 1,-1 1,-1 0,-1 0,-1 -1,-1 0,-1 0,-1 -1,-2 0,0 -2,-1 -3,-3 -1,-1 -2,-1 -2,-1 -1,-1 -1,-2 -1,-2 -1,-1 -1,-1 -1,-2 0,0 0,-1 0,-1 0,-1 0,-2 0,-3 1,-1 2,-2 3,-2 1,-1 3,-1 5,-1 1,0 3,0 5,0 0,1 0,3 0,4 -1,0 -3,-1 -4,-1 -2,0 -2,1 -3,1 -1,1 -1,1 -1,2 0,0 0,0 0,0 0,1 0,1 0,1 0,0 0,0 1,1 0,0 0,0 1,1 0,0 1,1 1,1l2 2c1,0 1,1 2,1 0,0 0,1 1,1 0,1 0,1 0,1 0,1 1,1 1,1 0,1 0,1 0,2 0,1 0,1 -1,2 0,1 -1,2 -2,2 -1,1 -2,1 -3,2 0,0 -2,0 -3,0 0,0 -1,0 -2,0 -1,0 -2,-1 -4,-1zm32 0l1 -5 0 -7 0 -7 -1 0 -1 0 -1 0 -4 0c0,-2 0,-3 0,-4 3,0 7,0 10,0l7 0 3 0c0,2 0,3 0,4 -2,0 -4,0 -6,0l-2 0 0 3 0 12 0 2c0,1 0,2 0,2l-3 0c0,0 -1,0 -3,0zm29 -23c1,0 3,0 5,0 1,1 3,2 4,3 1,1 2,2 2,3 1,2 1,3 1,5 0,2 0,4 -1,5 0,2 -1,3 -2,4 -1,2 -3,2 -5,3 -1,1 -3,1 -5,1 -2,0 -4,0 -5,-1 -2,0 -4,-1 -5,-2 -1,-1 -2,-3 -2,-4 -1,-2 -1,-3 -1,-5 0,-2 0,-3 1,-5 1,-2 1,-3 3,-4 1,-1 2,-2 4,-2 2,-1 4,-1 6,-1zm-1 3c-1,0 -3,1 -4,2 -1,0 -2,1 -3,3 -1,1 -1,3 -1,4 0,2 0,3 1,4 1,2 2,3 3,3 1,1 3,1 4,1 1,0 2,0 3,0 1,-1 2,-1 3,-2 1,-1 1,-2 2,-3 0,-1 0,-2 0,-4 0,-1 0,-2 0,-3 -1,-1 -1,-2 -2,-2 -1,-1 -1,-2 -2,-2 -1,0 -2,-1 -4,-1zm18 -3c1,0 2,0 2,0 1,0 2,0 3,0l-1 14c0,0 0,0 0,0 0,2 0,3 1,4 0,1 1,1 2,2 0,0 1,0 3,0 0,0 1,0 2,0 0,0 0,0 1,-1 0,0 1,0 1,0 0,-1 0,-1 1,-2 0,0 0,0 0,-1 0,-1 0,-2 0,-4l1 -6c0,-2 0,-4 0,-6 1,0 2,0 3,0l2 0 0 8 0 7c-1,1 -1,3 -1,3 0,1 0,2 -1,2 0,1 0,1 -1,1 0,1 -1,1 -2,2 -1,0 -2,0 -3,0 -1,1 -2,1 -4,1 -1,0 -2,0 -4,-1 -1,0 -2,0 -3,-1 -1,0 -1,-1 -2,-1 0,-1 -1,-1 -1,-2 0,-1 0,-2 0,-3 0,0 0,0 0,-1 0,-1 0,-1 0,-2l0 -3c0,0 0,-1 0,-3l0 -4c0,-1 1,-2 1,-3zm25 23c0,-3 0,-7 1,-11 0,-5 0,-9 0,-12 1,0 2,0 3,0 1,0 2,0 3,0 1,0 2,0 3,0 2,0 3,0 4,0 1,0 2,1 3,1 0,1 1,1 1,2 1,1 1,2 1,3 0,1 0,1 0,2 0,0 -1,1 -1,1 0,1 -1,1 -1,2 0,0 -1,0 -1,1 -1,0 -1,0 -1,0 -1,0 -2,0 -2,1l1 2c0,1 1,2 2,4l2 3c0,0 0,1 0,1 -1,0 -2,0 -2,0 -1,0 -2,0 -3,0l-2 -4c-1,-1 -1,-2 -1,-3l-2 -4c-1,0 -1,-1 -1,-1 0,0 1,0 2,0 1,0 2,0 2,-1 1,0 2,-1 2,-1 1,-1 1,-2 1,-2 0,-1 0,-1 0,-2 0,0 -1,0 -1,-1 -1,0 -1,0 -2,0 0,0 -1,0 -2,0 0,0 0,0 -1,0 -1,0 -1,0 -2,0l-1 7 0 12 -3 0c0,0 -1,0 -2,0zm22 0c0,-3 1,-8 1,-12 0,-4 0,-7 0,-9l0 -2 3 0c0,0 1,0 2,0 0,6 0,14 0,23l-3 0c0,0 -1,0 -3,0zm10 0c0,-2 1,-4 1,-6l0 -9c0,-3 0,-6 0,-8 2,0 3,0 4,0 0,0 1,0 3,0 1,2 3,5 5,9 2,3 4,6 6,9l0 -16c0,0 0,-1 0,-2 1,0 2,0 3,0 0,0 1,0 2,0l0 6 -1 11 0 6c-1,0 -2,0 -3,0 -1,0 -2,0 -3,0 -1,-1 -1,-1 -2,-2 0,-1 -1,-2 -3,-4 -1,-2 -2,-4 -3,-6 -2,-2 -2,-4 -3,-5 0,2 -1,5 -1,10 0,2 0,5 0,7 -1,0 -2,0 -2,0 -1,0 -1,0 -3,0zm41 -13c2,0 3,0 5,0 2,0 3,0 4,0 0,4 0,8 0,13 -2,0 -4,0 -5,1 -2,0 -3,0 -4,0 -2,0 -4,0 -6,-1 -1,0 -3,-1 -4,-2 -1,-1 -2,-2 -3,-4 0,-1 -1,-3 -1,-4 0,-2 0,-3 1,-5 0,-1 1,-2 2,-3 1,-2 2,-3 3,-3 2,-1 3,-2 4,-2 2,0 3,0 5,0 2,0 5,0 8,1 0,1 0,2 0,4 -3,-1 -5,-2 -8,-2 -1,0 -2,1 -4,1 -1,0 -2,1 -3,2 -1,1 -1,2 -2,3 0,1 -1,2 -1,4 0,1 1,2 1,4 1,1 2,2 3,2 1,1 3,1 4,1 1,0 2,0 2,0 1,0 2,0 3,0l0 -6 -1 0c-1,0 -2,0 -3,0 0,-2 0,-3 0,-4z" class="fil0"/><g><path d="M151 4c30,-1 56,2 76,8 18,5 30,13 30,22 0,8 -10,15 -26,21 -16,5 -37,9 -62,10 -25,1 -48,-1 -67,-5 -20,-5 -34,-11 -39,-20 -5,-8 2,-17 18,-24 16,-6 41,-11 70,-12zm1 3c27,-1 51,2 68,7 17,5 28,12 28,20 1,8 -9,14 -23,19 -14,5 -34,9 -57,10 -22,0 -44,-1 -61,-5 -18,-4 -31,-10 -35,-18 -4,-8 2,-15 16,-22 15,-6 38,-10 64,-11z" class="fil1"/><path d="M91 0l0 0c0,18 15,32 32,32l0 0c-17,0 -32,15 -32,33l0 0c0,-18 -15,-33 -32,-33l0 0c17,0 32,-14 32,-32z" class="fil2"/><path d="M153 0l0 0c0,18 15,32 32,32l0 0c-17,0 -32,15 -32,33l0 0c0,-18 -15,-33 -32,-33l0 0c17,0 32,-14 32,-32z" class="fil2"/><path d="M217 0l0 0c0,18 14,32 32,32l0 0c-18,0 -32,15 -32,33l0 0c0,-18 -15,-33 -33,-33l0 0c18,0 33,-14 33,-32z" class="fil2"/><path d="M122 38l0 0c0,5 4,9 10,9l0 0c-6,0 -10,4 -10,9l0 0c0,-5 -4,-9 -9,-9l0 0c5,0 9,-4 9,-9z" class="fil2"/><path d="M186 38l0 0c0,5 5,9 10,9l0 0c-5,0 -10,4 -10,9l0 0c0,-5 -4,-9 -9,-9l0 0c5,0 9,-4 9,-9z" class="fil2"/><path d="M186 10l0 0c0,5 5,10 10,10l0 0c-5,0 -10,4 -10,9l0 0c0,-5 -4,-9 -9,-9l0 0c5,0 9,-5 9,-10z" class="fil2"/><path d="M122 10l0 0c0,5 4,10 10,10l0 0c-6,0 -10,4 -10,9l0 0c0,-5 -4,-9 -9,-9l0 0c5,0 9,-5 9,-10z" class="fil2"/><path d="M197 55l0 0c0,3 2,5 4,5l0 0c-2,0 -4,2 -4,5l0 0c0,-3 -2,-5 -5,-5l0 0c3,0 5,-2 5,-5z" class="fil2"/><path d="M175 60l0 0c0,3 2,5 5,5l0 0c-3,0 -5,2 -5,4l0 0c0,-2 -2,-4 -4,-4l0 0c2,0 4,-2 4,-5z" class="fil2"/><path d="M142 60l0 0c0,3 2,5 5,5l0 0c-3,0 -5,2 -5,4l0 0c0,-2 -2,-4 -5,-4l0 0c3,0 5,-2 5,-5z" class="fil2"/><path d="M110 54l0 0c0,2 2,4 4,4l0 0c-2,0 -4,2 -4,5l0 0c0,-3 -2,-5 -5,-5l0 0c3,0 5,-2 5,-4z" class="fil2"/><path d="M67 35l0 0c0,2 2,4 4,4l0 0c-2,0 -4,3 -4,5l0 0c0,-2 -2,-5 -5,-5l0 0c3,0 5,-2 5,-4z" class="fil2"/><path d="M106 7l0 0c0,2 2,4 5,4l0 0c-3,0 -5,2 -5,5l0 0c0,-3 -2,-5 -4,-5l0 0c2,0 4,-2 4,-4z" class="fil2"/><path d="M141 2l0 0c0,2 2,4 4,4l0 0c-2,0 -4,2 -4,5l0 0c0,-3 -2,-5 -5,-5l0 0c3,0 5,-2 5,-4z" class="fil2"/><path d="M173 1l0 0c0,2 2,4 4,4l0 0c-2,0 -4,2 -4,5l0 0c0,-3 -2,-5 -5,-5l0 0c3,0 5,-2 5,-4z" class="fil2"/><path d="M207 4l0 0c0,2 2,4 5,4l0 0c-3,0 -5,2 -5,5l0 0c0,-3 -2,-5 -5,-5l0 0c3,0 5,-2 5,-4z" class="fil2"/><path d="M249 21l0 0c0,3 2,5 5,5l0 0c-3,0 -5,2 -5,4l0 0c0,-2 -2,-4 -4,-4l0 0c2,0 4,-2 4,-5z" class="fil2"/></g></g></g></svg>